<?xml version="1.0" encoding="UTF-8" standalone="no"?>
<svg
   xmlns:dc="http://purl.org/dc/elements/1.1/"
   xmlns:cc="http://creativecommons.org/ns#"
   xmlns:rdf="http://www.w3.org/1999/02/22-rdf-syntax-ns#"
   xmlns:svg="http://www.w3.org/2000/svg"
   xmlns="http://www.w3.org/2000/svg"
   xmlns:sodipodi="http://sodipodi.sourceforge.net/DTD/sodipodi-0.dtd"
   xmlns:inkscape="http://www.inkscape.org/namespaces/inkscape"
   inkscape:export-ydpi="400"
   inkscape:export-xdpi="400"
   inkscape:export-filename="D:\Prog\NodeJS\PooTimeAdventure\pootime-adventure-mobile-app\assets\ulti\entrouporte.png"
   width="16.387306mm"
   height="23.83037mm"
   viewBox="0 0 16.387307 23.83037"
   version="1.1"
   id="svg8"
   inkscape:version="1.0 (4035a4fb49, 2020-05-01)"
   sodipodi:docname="heads.svg">
  <defs
     id="defs2">
    <inkscape:path-effect
       only_selected="false"
       apply_with_weight="true"
       apply_no_weight="true"
       helper_size="0"
       steps="2"
       weight="33.333333"
       lpeversion="1"
       is_visible="true"
       id="path-effect1824"
       effect="bspline" />
  </defs>
  <sodipodi:namedview
     fit-margin-bottom="0"
     fit-margin-right="0"
     fit-margin-left="0"
     fit-margin-top="0"
     id="base"
     pagecolor="#ffffff"
     bordercolor="#666666"
     borderopacity="1.0"
     inkscape:pageopacity="0.0"
     inkscape:pageshadow="2"
     inkscape:zoom="2.8284271"
     inkscape:cx="-2914.263"
     inkscape:cy="-502.58262"
     inkscape:document-units="mm"
     inkscape:current-layer="layer1"
     inkscape:document-rotation="0"
     showgrid="false"
     inkscape:window-width="1920"
     inkscape:window-height="1001"
     inkscape:window-x="-9"
     inkscape:window-y="-9"
     inkscape:window-maximized="1">
    <inkscape:grid
       originy="-243.46565"
       originx="-101.68675"
       id="grid860"
       type="xygrid" />
  </sodipodi:namedview>
  <metadata
     id="metadata5">
    <rdf:RDF>
      <cc:Work
         rdf:about="">
        <dc:format>image/svg+xml</dc:format>
        <dc:type
           rdf:resource="http://purl.org/dc/dcmitype/StillImage" />
        <dc:title></dc:title>
      </cc:Work>
    </rdf:RDF>
  </metadata>
  <g
     transform="translate(-101.68674,-243.46567)"
     inkscape:label="Calque 1"
     inkscape:groupmode="layer"
     id="layer1">
    <path
       style="fill:#e5e3b3;fill-opacity:1;fill-rule:evenodd;stroke:#000000;stroke-width:0.899999;stroke-linecap:round;stroke-linejoin:round;stroke-miterlimit:4;stroke-dasharray:none;stroke-opacity:1;paint-order:markers fill stroke"
       d="m -658.31977,107.65965 c -0.20422,4.12022 -0.0893,5.03749 0.51879,5.00687 0.95258,-0.048 0.87495,-3.36698 1.46558,-5.17223 l 2.24424,-0.0827 c 0.3192,1.74929 0.54257,5.64944 1.40481,5.29565 0.55948,-0.22956 0.65055,-0.35469 0.80398,-5.33109 l -0.0355,-2.59859 c 1.98028,2.09633 2.21297,2.40102 2.85605,2.32212 1.08081,-0.3005 -0.72182,-3.23902 -2.8088,-5.29867 l -6.68544,-1e-5 c -1.26096,1.07283 -3.12192,5.24799 -2.61101,5.49636 0.53893,0.262 0.5322,0.73234 2.98898,-2.70878 z"
       id="path833-7-0-3-7-2-6-9-1-0-5"
       sodipodi:nodetypes="csccscccccscc" />
    <path
       style="fill:#ffffff;fill-opacity:1;fill-rule:evenodd;stroke:#020201;stroke-width:1.1;stroke-linecap:round;stroke-linejoin:round;stroke-miterlimit:4;stroke-dasharray:none;stroke-opacity:1;paint-order:markers fill stroke"
       d="m -657.38657,99.790928 c -4.38119,5.100872 6.46497,6.564952 3.96874,0.396852 3.30885,6.5749 8.15185,-1.343052 1.91823,-2.546612 6.20284,1.2515 3.81863,-5.18282 -1.12448,-1.91823 7.4089,-3.64083 -6.72632,-8.67744 -2.98929,-0.83181 -2.99974,-6.8624 -8.79464,0.52084 -2.50081,1.3279 -6.49337,-1.55836 -4.19789,8.461412 0.72761,3.5719 z"
       id="path1313-1-3"
       sodipodi:nodetypes="ccccccc" />
    <path
       style="fill:#e5e3b3;fill-opacity:1;fill-rule:evenodd;stroke:#000000;stroke-width:1.1;stroke-linecap:round;stroke-linejoin:round;stroke-miterlimit:4;stroke-dasharray:none;stroke-opacity:1;paint-order:markers fill stroke"
       d="m -658.2828,97.754538 c 0.046,-3.52052 6.62425,-3.51937 6.7832,-0.11337 0.42164,2.770712 -6.2787,4.614332 -6.7832,0.11337 z"
       id="path837-6-1-0-5-4-5-9-1-3-1"
       sodipodi:nodetypes="ccc" />
    <path
       style="fill:#ffffff;fill-opacity:1;fill-rule:evenodd;stroke:#000000;stroke-width:0.499999;stroke-linecap:round;stroke-linejoin:round;stroke-miterlimit:4;stroke-dasharray:none;paint-order:markers fill stroke"
       d="m -656.84521,96.974478 0.58465,0.35078"
       id="path1274-2-4-1" />
    <path
       style="fill:#ffffff;fill-opacity:1;fill-rule:evenodd;stroke:#000000;stroke-width:0.499999;stroke-linecap:round;stroke-linejoin:round;stroke-miterlimit:4;stroke-dasharray:none;paint-order:markers fill stroke"
       d="m -653.11996,96.705868 -0.5145,0.50279"
       id="path1276-5-7-4" />
    <path
       sodipodi:nodetypes="ccc"
       id="path1308-4-2"
       d="m -654.49134,97.954998 -0.90124,0.55398 0.93432,0.48784"
       style="fill:none;fill-opacity:1;fill-rule:evenodd;stroke:#000000;stroke-width:0.499999;stroke-linecap:round;stroke-linejoin:round;stroke-miterlimit:4;stroke-dasharray:none;paint-order:markers fill stroke" />
    <path
       sodipodi:nodetypes="csccscccccscc"
       id="path833-4"
       d="m -676.51721,107.5514 c -0.20422,4.12022 -0.0893,5.03749 0.51879,5.00687 0.95258,-0.048 0.87495,-3.36698 1.46558,-5.17223 l 2.24423,-0.0827 c 0.3192,1.74929 0.54257,5.64944 1.40482,5.29565 0.55948,-0.22956 0.65054,-0.35469 0.80398,-5.33109 l -0.0355,-2.59859 c 1.98028,2.09633 2.21297,2.40102 2.85605,2.32212 1.08078,-0.3005 -0.72182,-3.23902 -2.8088,-5.29867 l -6.68545,-1e-5 c -1.26096,1.07283 -3.12192,5.24799 -2.61101,5.49636 0.53893,0.262 0.5322,0.73234 2.98898,-2.70878 z"
       style="fill:#e5e3b3;fill-opacity:1;fill-rule:evenodd;stroke:#000000;stroke-width:0.899999;stroke-linecap:round;stroke-linejoin:round;stroke-miterlimit:4;stroke-dasharray:none;stroke-opacity:1;paint-order:markers fill stroke" />
    <path
       sodipodi:nodetypes="ccccccccc"
       id="path835-5"
       d="m -680.55967,101.16992 c 1.89635,1.91906 12.93048,1.67918 14.62559,0.36404 0.65976,-1.628382 0.4918,-2.946362 -0.94695,-3.787792 0.43782,-1.1063 1.62192,-2.62191 -1.72679,-4.34481 0.80148,-1.05904 0.36029,-1.84273 -1.45725,-2.50209 -1.91507,0.91611 -4.50406,0.066 -6.78676,-1.11859 -1.03264,0.84084 -2.11371,1.98038 -0.64024,3.51604 -1.0211,0.52877 -3.16681,1.29793 -1.78604,4.09174 -1.13485,0.84981 -2.08255,1.97637 -1.28156,3.781462 z"
       style="fill:#c8a000;fill-opacity:1;fill-rule:evenodd;stroke:#000000;stroke-width:1.1;stroke-linecap:round;stroke-linejoin:round;stroke-miterlimit:4;stroke-dasharray:none;stroke-opacity:1;paint-order:markers fill stroke" />
    <path
       sodipodi:nodetypes="ccc"
       id="path837-0"
       d="m -676.48024,97.646288 c 0.046,-3.52052 6.62425,-3.51937 6.7832,-0.11337 0.42164,2.770712 -6.2787,4.614332 -6.7832,0.11337 z"
       style="fill:#e5e3b3;fill-opacity:1;fill-rule:evenodd;stroke:#000000;stroke-width:1.1;stroke-linecap:round;stroke-linejoin:round;stroke-miterlimit:4;stroke-dasharray:none;stroke-opacity:1;paint-order:markers fill stroke" />
    <path
       id="path839-8"
       d="m -674.9935,96.720028 h 0.16536"
       style="fill:#ffffff;fill-opacity:1;fill-rule:evenodd;stroke:#000000;stroke-width:0.499999;stroke-linecap:round;stroke-linejoin:round;stroke-miterlimit:4;stroke-dasharray:none;stroke-opacity:1;paint-order:markers fill stroke" />
    <path
       id="path841-01"
       d="m -671.36729,96.767268 0.22442,0.0354"
       style="fill:#ffffff;fill-opacity:1;fill-rule:evenodd;stroke:#000000;stroke-width:0.499999;stroke-linecap:round;stroke-linejoin:round;stroke-miterlimit:4;stroke-dasharray:none;stroke-opacity:1;paint-order:markers fill stroke" />
    <path
       sodipodi:nodetypes="ccc"
       id="path843-14"
       d="m -674.73364,97.676778 c 1.1809,2.341092 2.40619,1.75259 3.64983,-0.0472 z"
       style="fill:#ffffff;fill-opacity:1;fill-rule:evenodd;stroke:#000000;stroke-width:0.499999;stroke-linecap:round;stroke-linejoin:round;stroke-miterlimit:4;stroke-dasharray:none;stroke-opacity:1;paint-order:markers fill stroke" />
  </g>
</svg>
