<?xml version="1.0" encoding="UTF-8" standalone="no"?>
<svg
   xmlns:dc="http://purl.org/dc/elements/1.1/"
   xmlns:cc="http://creativecommons.org/ns#"
   xmlns:rdf="http://www.w3.org/1999/02/22-rdf-syntax-ns#"
   xmlns:svg="http://www.w3.org/2000/svg"
   xmlns="http://www.w3.org/2000/svg"
   xmlns:sodipodi="http://sodipodi.sourceforge.net/DTD/sodipodi-0.dtd"
   xmlns:inkscape="http://www.inkscape.org/namespaces/inkscape"
   width="19.522713mm"
   height="17.785986mm"
   viewBox="0 0 19.522713 17.785986"
   version="1.1"
   id="svg8"
   inkscape:version="1.0 (4035a4fb49, 2020-05-01)"
   sodipodi:docname="pooedit.svg">
  <defs
     id="defs2" />
  <sodipodi:namedview
     fit-margin-bottom="0"
     fit-margin-right="0"
     fit-margin-left="0"
     fit-margin-top="0"
     id="base"
     pagecolor="#ffffff"
     bordercolor="#666666"
     borderopacity="1.0"
     inkscape:pageopacity="0.0"
     inkscape:pageshadow="2"
     inkscape:zoom="5.6568543"
     inkscape:cx="17.098626"
     inkscape:cy="34.263816"
     inkscape:document-units="mm"
     inkscape:current-layer="layer1"
     inkscape:document-rotation="0"
     showgrid="false"
     inkscape:window-width="1920"
     inkscape:window-height="1001"
     inkscape:window-x="-9"
     inkscape:window-y="-9"
     inkscape:window-maximized="1">
    <inkscape:grid
       originy="-457.02055"
       originx="-181.60391"
       id="grid860"
       type="xygrid" />
  </sodipodi:namedview>
  <metadata
     id="metadata5">
    <rdf:RDF>
      <cc:Work
         rdf:about="">
        <dc:format>image/svg+xml</dc:format>
        <dc:type
           rdf:resource="http://purl.org/dc/dcmitype/StillImage" />
        <dc:title></dc:title>
      </cc:Work>
    </rdf:RDF>
  </metadata>
  <g
     transform="translate(-100.5501,-247.62805)"
     inkscape:label="Calque 1"
     inkscape:groupmode="layer"
     id="layer1">
    <path
       sodipodi:nodetypes="ccc"
       id="path1019"
       d="m 117.30964,254.47956 c 4.08459,-1.27004 1.64172,-5.59059 1.00872,-6.39961 0.23662,2.71361 -4.63018,2.1676 -2.96003,5.47356"
       style="fill:#ffd828;fill-opacity:1;fill-rule:evenodd;stroke:#000000;stroke-width:0.903999;stroke-linecap:round;stroke-linejoin:round;stroke-miterlimit:4;stroke-dasharray:none;paint-order:markers fill stroke" />
    <path
       sodipodi:nodetypes="ccccccccc"
       id="path835-4-4-7"
       d="m 101.39092,260.31988 c 1.89635,1.91906 12.93047,1.67918 14.62558,0.36404 0.65976,-1.62838 0.4918,-2.94636 -0.94695,-3.78779 0.43782,-1.1063 1.62192,-2.62191 -1.72679,-4.34481 0.80148,-1.05904 0.36029,-1.84273 -1.45725,-2.50209 -1.91507,0.91611 -4.50406,0.066 -6.78675,-1.11859 -1.03264,0.84084 -2.11371,1.98038 -0.64024,3.51604 -1.0211,0.52877 -3.16681,1.29793 -1.78604,4.09174 -1.13485,0.84981 -2.08255,1.97637 -1.28156,3.78146 z"
       style="fill:#5eff68;fill-opacity:1;fill-rule:evenodd;stroke:#000000;stroke-width:1.1;stroke-linecap:round;stroke-linejoin:round;stroke-miterlimit:4;stroke-dasharray:none;stroke-opacity:1;paint-order:markers fill stroke" />
    <path
       style="fill:#e5e3b3;fill-opacity:1;fill-rule:evenodd;stroke:#000000;stroke-width:1.1;stroke-linecap:round;stroke-linejoin:round;stroke-miterlimit:4;stroke-dasharray:none;stroke-opacity:1;paint-order:markers fill stroke"
       d="m 105.47343,256.75455 c 0.046,-3.52052 6.62425,-3.51937 6.7832,-0.11337 0.42164,2.77071 -6.2787,4.61433 -6.7832,0.11337 z"
       id="path837-7-69"
       sodipodi:nodetypes="ccc" />
    <path
       sodipodi:nodetypes="cc"
       style="fill:none;fill-opacity:1;fill-rule:evenodd;stroke:#000000;stroke-width:0.504;stroke-linecap:round;stroke-linejoin:round;stroke-miterlimit:4;stroke-dasharray:none;paint-order:markers fill stroke"
       d="m 106.94994,257.28526 c 0.41955,-1.93916 1.07059,-0.93978 1.36138,-0.003"
       id="path917-6" />
    <path
       id="path917-6-7"
       d="m 110.78043,257.26665 c -0.41955,-1.93916 -1.07059,-0.93978 -1.36138,-0.003"
       style="fill:none;fill-opacity:1;fill-rule:evenodd;stroke:#000000;stroke-width:0.504;stroke-linecap:round;stroke-linejoin:round;stroke-miterlimit:4;stroke-dasharray:none;paint-order:markers fill stroke"
       sodipodi:nodetypes="cc" />
    <path
       sodipodi:nodetypes="cccc"
       id="path1015"
       d="m 110.24857,264.81484 c -2.07792,-1.34129 3.95407,-6.76142 4.17936,-10.05735 l 2.17818,1.22806 c -2.16434,1.27058 -3.98082,10.26121 -6.35754,8.82929 z"
       style="fill:#c2883b;fill-opacity:1;fill-rule:evenodd;stroke:#000000;stroke-width:0.903999;stroke-linecap:round;stroke-linejoin:round;stroke-miterlimit:4;stroke-dasharray:none;paint-order:markers fill stroke" />
    <path
       sodipodi:nodetypes="ccccc"
       id="path1017"
       d="m 116.60611,255.98555 c -0.5645,-0.18727 -1.49603,-0.61014 -2.17818,-1.22806 -0.0322,-0.43676 0.50919,-1.38452 0.9304,-1.20398 0.15402,-0.0156 1.06223,0.27824 1.95131,0.92605 0.25894,0.4173 -0.0902,1.0799 -0.70353,1.50599 z"
       style="fill:#c3bfba;fill-opacity:1;fill-rule:evenodd;stroke:#000000;stroke-width:0.903999;stroke-linecap:round;stroke-linejoin:round;stroke-miterlimit:4;stroke-dasharray:none;paint-order:markers fill stroke" />
  </g>
</svg>
