<?xml version="1.0" encoding="UTF-8" standalone="no"?>
<svg
   xmlns:dc="http://purl.org/dc/elements/1.1/"
   xmlns:cc="http://creativecommons.org/ns#"
   xmlns:rdf="http://www.w3.org/1999/02/22-rdf-syntax-ns#"
   xmlns:svg="http://www.w3.org/2000/svg"
   xmlns="http://www.w3.org/2000/svg"
   xmlns:xlink="http://www.w3.org/1999/xlink"
   xmlns:sodipodi="http://sodipodi.sourceforge.net/DTD/sodipodi-0.dtd"
   xmlns:inkscape="http://www.inkscape.org/namespaces/inkscape"
   width="34.134708mm"
   height="22.017704mm"
   viewBox="0 0 34.134708 22.017704"
   version="1.1"
   id="svg8"
   inkscape:version="1.0 (4035a4fb49, 2020-05-01)"
   sodipodi:docname="poofight.svg">
  <defs
     id="defs2">
    <linearGradient
       id="linearGradient970"
       inkscape:collect="always">
      <stop
         id="stop966"
         offset="0"
         style="stop-color:#ffc001;stop-opacity:1" />
      <stop
         id="stop968"
         offset="1"
         style="stop-color:#fff182;stop-opacity:1" />
    </linearGradient>
    <radialGradient
       spreadMethod="pad"
       gradientUnits="userSpaceOnUse"
       gradientTransform="matrix(1,0,0,0.90504708,0,20.865578)"
       r="12.887355"
       fy="220.17455"
       fx="98.75827"
       cy="220.17455"
       cx="98.75827"
       id="radialGradient972"
       xlink:href="#linearGradient970"
       inkscape:collect="always" />
  </defs>
  <sodipodi:namedview
     fit-margin-bottom="0"
     fit-margin-right="0"
     fit-margin-left="0"
     fit-margin-top="0"
     id="base"
     pagecolor="#ffffff"
     bordercolor="#666666"
     borderopacity="1.0"
     inkscape:pageopacity="0.0"
     inkscape:pageshadow="2"
     inkscape:zoom="2.8284271"
     inkscape:cx="15.878264"
     inkscape:cy="-10.377261"
     inkscape:document-units="mm"
     inkscape:current-layer="layer1"
     inkscape:document-rotation="0"
     showgrid="false"
     inkscape:window-width="1920"
     inkscape:window-height="1001"
     inkscape:window-x="-9"
     inkscape:window-y="-9"
     inkscape:window-maximized="1">
    <inkscape:grid
       originy="-209.39251"
       originx="-81.053795"
       id="grid860"
       type="xygrid" />
  </sodipodi:namedview>
  <metadata
     id="metadata5">
    <rdf:RDF>
      <cc:Work
         rdf:about="">
        <dc:format>image/svg+xml</dc:format>
        <dc:type
           rdf:resource="http://purl.org/dc/dcmitype/StillImage" />
        <dc:title></dc:title>
      </cc:Work>
    </rdf:RDF>
  </metadata>
  <g
     transform="translate(-81.053799,-209.39252)"
     inkscape:label="Calque 1"
     inkscape:groupmode="layer"
     id="layer1">
    <path
       sodipodi:nodetypes="ccccccccccccccccccccc"
       id="path943"
       d="m 92.104167,213.4958 0.193737,-3.65132 3.973451,2.98986 3.567173,-2.77938 1.327622,3.90386 5.65037,-1.07565 -1.41704,4.38294 5.29167,2.77813 -5.35781,2.18281 2.91041,4.56406 -4.50055,-0.34946 -0.72497,4.25202 -4.073644,-2.64779 -3.698492,2.68085 -1.840445,-4.03116 -4.661501,0.35869 1.221229,-4.12235 -4.14506,-3.21845 4.630208,-2.05052 -2.33164,-3.53881 z"
       style="fill:url(#radialGradient972);fill-opacity:1;fill-rule:evenodd;stroke:#000000;stroke-width:0.904;stroke-linecap:round;stroke-linejoin:round;stroke-miterlimit:4;stroke-dasharray:none;paint-order:markers fill stroke" />
    <path
       sodipodi:nodetypes="ccccccccc"
       id="path835-4"
       d="m 96.600288,223.44673 c -1.89635,1.91906 -12.93048,1.67918 -14.62559,0.36404 -0.65976,-1.62838 -0.4918,-2.94636 0.94695,-3.78779 -0.43782,-1.1063 -1.62192,-2.62191 1.72679,-4.34481 -0.80148,-1.05904 -0.36029,-1.84273 1.45725,-2.50209 1.91507,0.91611 4.50406,0.066 6.78676,-1.11859 1.03264,0.84084 2.11371,1.98038 0.64024,3.51604 1.0211,0.52877 3.16681,1.29793 1.78604,4.09174 1.13485,0.84981 2.08255,1.97637 1.28156,3.78146 z"
       style="fill:#ff5041;fill-opacity:1;fill-rule:evenodd;stroke:#000000;stroke-width:1.1;stroke-linecap:round;stroke-linejoin:round;stroke-miterlimit:4;stroke-dasharray:none;stroke-opacity:1;paint-order:markers fill stroke" />
    <path
       style="fill:#5e92ff;fill-opacity:1;fill-rule:evenodd;stroke:#000000;stroke-width:1.1;stroke-linecap:round;stroke-linejoin:round;stroke-miterlimit:4;stroke-dasharray:none;stroke-opacity:1;paint-order:markers fill stroke"
       d="m 99.642031,226.25386 c 1.896349,1.91906 12.930469,1.67918 14.625579,0.36404 0.65976,-1.62838 0.4918,-2.94636 -0.94695,-3.78779 0.43782,-1.1063 1.62192,-2.62191 -1.72679,-4.34481 0.80148,-1.05904 0.36029,-1.84273 -1.45725,-2.50209 -1.91507,0.91611 -4.50406,0.066 -6.78675,-1.11859 -1.03264,0.84084 -2.11371,1.98038 -0.64024,3.51604 -1.0211,0.52877 -3.166809,1.29793 -1.78604,4.09174 -1.134849,0.84981 -2.082549,1.97637 -1.281559,3.78146 z"
       id="path835-4-4"
       sodipodi:nodetypes="ccccccccc" />
    <path
       sodipodi:nodetypes="ccc"
       id="path837-7"
       d="m 103.72454,222.68853 c 0.046,-3.52052 6.62425,-3.51937 6.7832,-0.11337 0.42164,2.77071 -6.2787,4.61433 -6.7832,0.11337 z"
       style="fill:#e5e3b3;fill-opacity:1;fill-rule:evenodd;stroke:#000000;stroke-width:1.1;stroke-linecap:round;stroke-linejoin:round;stroke-miterlimit:4;stroke-dasharray:none;stroke-opacity:1;paint-order:markers fill stroke" />
    <path
       style="fill:#e5e3b3;fill-opacity:1;fill-rule:evenodd;stroke:#000000;stroke-width:1.1;stroke-linecap:round;stroke-linejoin:round;stroke-miterlimit:4;stroke-dasharray:none;stroke-opacity:1;paint-order:markers fill stroke"
       d="m 85.820317,219.71346 c 0.046,-3.52052 6.62425,-3.51937 6.7832,-0.11337 0.42164,2.77071 -6.2787,4.61433 -6.7832,0.11337 z"
       id="path837-7-6"
       sodipodi:nodetypes="ccc" />
    <path
       id="path917"
       d="m 105.33334,222.22705 0.86529,1.0056"
       style="fill:#ff5041;fill-opacity:1;fill-rule:evenodd;stroke:#000000;stroke-width:0.504;stroke-linecap:round;stroke-linejoin:round;stroke-miterlimit:4;stroke-dasharray:none;paint-order:markers fill stroke" />
    <path
       id="path919"
       d="m 107.97597,223.44313 1.02899,-1.12253"
       style="fill:#ff5041;fill-opacity:1;fill-rule:evenodd;stroke:#000000;stroke-width:0.504;stroke-linecap:round;stroke-linejoin:round;stroke-miterlimit:4;stroke-dasharray:none;paint-order:markers fill stroke" />
    <path
       style="fill:#ff5041;fill-opacity:1;fill-rule:evenodd;stroke:#000000;stroke-width:0.504;stroke-linecap:round;stroke-linejoin:round;stroke-miterlimit:4;stroke-dasharray:none;paint-order:markers fill stroke"
       d="m 91.157952,219.39358 -0.86529,1.0056"
       id="path917-5" />
    <path
       style="fill:#ff5041;fill-opacity:1;fill-rule:evenodd;stroke:#000000;stroke-width:0.504;stroke-linecap:round;stroke-linejoin:round;stroke-miterlimit:4;stroke-dasharray:none;paint-order:markers fill stroke"
       d="m 88.515322,220.60966 -1.02899,-1.12253"
       id="path919-8" />
  </g>
</svg>
