<?xml version="1.0" encoding="UTF-8" standalone="no"?>
<svg
   xmlns:dc="http://purl.org/dc/elements/1.1/"
   xmlns:cc="http://creativecommons.org/ns#"
   xmlns:rdf="http://www.w3.org/1999/02/22-rdf-syntax-ns#"
   xmlns:svg="http://www.w3.org/2000/svg"
   xmlns="http://www.w3.org/2000/svg"
   xmlns:xlink="http://www.w3.org/1999/xlink"
   xmlns:sodipodi="http://sodipodi.sourceforge.net/DTD/sodipodi-0.dtd"
   xmlns:inkscape="http://www.inkscape.org/namespaces/inkscape"
   width="210mm"
   height="297mm"
   viewBox="0 0 210 297"
   version="1.1"
   id="svg8"
   inkscape:version="1.0 (4035a4fb49, 2020-05-01)"
   sodipodi:docname="pootimeadventure.svg">
  <defs
     id="defs2">
    <linearGradient
       id="linearGradient970"
       inkscape:collect="always">
      <stop
         id="stop966"
         offset="0"
         style="stop-color:#ffc001;stop-opacity:1" />
      <stop
         id="stop968"
         offset="1"
         style="stop-color:#fff182;stop-opacity:1" />
    </linearGradient>
    <radialGradient
       spreadMethod="pad"
       gradientUnits="userSpaceOnUse"
       gradientTransform="matrix(1,0,0,0.90504708,0,20.865578)"
       r="12.887355"
       fy="220.17455"
       fx="98.75827"
       cy="220.17455"
       cx="98.75827"
       id="radialGradient972"
       xlink:href="#linearGradient970"
       inkscape:collect="always" />
  </defs>
  <sodipodi:namedview
     id="base"
     pagecolor="#ffffff"
     bordercolor="#666666"
     borderopacity="1.0"
     inkscape:pageopacity="0.0"
     inkscape:pageshadow="2"
     inkscape:zoom="0.70710678"
     inkscape:cx="536.20174"
     inkscape:cy="725.98514"
     inkscape:document-units="mm"
     inkscape:current-layer="layer1"
     inkscape:document-rotation="0"
     showgrid="false"
     inkscape:window-width="1920"
     inkscape:window-height="1001"
     inkscape:window-x="-9"
     inkscape:window-y="-9"
     inkscape:window-maximized="1">
    <inkscape:grid
       id="grid860"
       type="xygrid" />
  </sodipodi:namedview>
  <metadata
     id="metadata5">
    <rdf:RDF>
      <cc:Work
         rdf:about="">
        <dc:format>image/svg+xml</dc:format>
        <dc:type
           rdf:resource="http://purl.org/dc/dcmitype/StillImage" />
        <dc:title></dc:title>
      </cc:Work>
    </rdf:RDF>
  </metadata>
  <g
     inkscape:label="Calque 1"
     inkscape:groupmode="layer"
     id="layer1">
    <path
       sodipodi:nodetypes="ccccccccccccccccccccc"
       id="path943"
       d="m 92.104167,213.4958 0.193737,-3.65132 3.973451,2.98986 3.567173,-2.77938 1.327622,3.90386 5.65037,-1.07565 -1.41704,4.38294 5.29167,2.77813 -5.35781,2.18281 2.91041,4.56406 -3.44818,0.0481 -2.10807,4.11904 -3.742914,-2.91237 -4.459169,2.51549 -1.079768,-3.8658 -4.661501,0.35869 1.221229,-4.12235 -4.14506,-3.21845 4.630208,-2.05052 -2.33164,-3.53881 z"
       style="fill:url(#radialGradient972);fill-opacity:1;fill-rule:evenodd;stroke:#000000;stroke-width:0.904;stroke-linecap:round;stroke-linejoin:round;stroke-miterlimit:4;stroke-dasharray:none;paint-order:markers fill stroke" />
    <path
       style="fill:#e5e3b3;fill-opacity:1;fill-rule:evenodd;stroke:#000000;stroke-width:0.9;stroke-linecap:round;stroke-linejoin:round;stroke-miterlimit:4;stroke-dasharray:none;stroke-opacity:1;paint-order:markers fill stroke"
       d="m 148.47378,208.5956 c -0.20422,4.12022 -0.0893,5.03749 0.51879,5.00687 0.95258,-0.048 0.87495,-3.36698 1.46558,-5.17223 l 2.24423,-0.0827 c 0.3192,1.74929 0.54257,5.64944 1.40482,5.29565 0.55948,-0.22956 0.65054,-0.35469 0.80398,-5.33109 l -0.0355,-2.59859 c 1.98028,2.09633 2.21297,2.40102 2.85605,2.32212 1.08078,-0.3005 -0.72182,-3.23902 -2.8088,-5.29867 l -6.68545,-1e-5 c -1.26096,1.07283 -3.12192,5.24799 -2.61101,5.49636 0.53893,0.262 0.5322,0.73234 2.98898,-2.70878 z"
       id="path833"
       sodipodi:nodetypes="csccscccccscc" />
    <path
       style="fill:#c8a000;fill-opacity:1;fill-rule:evenodd;stroke:#000000;stroke-width:1.1;stroke-linecap:round;stroke-linejoin:round;stroke-miterlimit:4;stroke-dasharray:none;stroke-opacity:1;paint-order:markers fill stroke"
       d="m 144.43132,202.21412 c 1.89635,1.91906 12.93048,1.67918 14.62559,0.36404 0.65976,-1.62838 0.4918,-2.94636 -0.94695,-3.78779 0.43782,-1.1063 1.62192,-2.62191 -1.72679,-4.34481 0.80148,-1.05904 0.36029,-1.84273 -1.45725,-2.50209 -1.91507,0.91611 -4.50406,0.066 -6.78676,-1.11859 -1.03264,0.84084 -2.11371,1.98038 -0.64024,3.51604 -1.0211,0.52877 -3.16681,1.29793 -1.78604,4.09174 -1.13485,0.84981 -2.08255,1.97637 -1.28156,3.78146 z"
       id="path835"
       sodipodi:nodetypes="ccccccccc" />
    <path
       style="fill:#e5e3b3;fill-opacity:1;fill-rule:evenodd;stroke:#000000;stroke-width:1.1;stroke-linecap:round;stroke-linejoin:round;stroke-miterlimit:4;stroke-dasharray:none;stroke-opacity:1;paint-order:markers fill stroke"
       d="m 148.51075,198.69049 c 0.046,-3.52052 6.62425,-3.51937 6.7832,-0.11337 0.42164,2.77071 -6.2787,4.61433 -6.7832,0.11337 z"
       id="path837"
       sodipodi:nodetypes="ccc" />
    <path
       style="fill:#ffffff;fill-opacity:1;fill-rule:evenodd;stroke:#000000;stroke-width:0.5;stroke-linecap:round;stroke-linejoin:round;stroke-miterlimit:4;stroke-dasharray:none;stroke-opacity:1;paint-order:markers fill stroke"
       d="m 149.99749,197.76423 h 0.16536"
       id="path839" />
    <path
       style="fill:#ffffff;fill-opacity:1;fill-rule:evenodd;stroke:#000000;stroke-width:0.5;stroke-linecap:round;stroke-linejoin:round;stroke-miterlimit:4;stroke-dasharray:none;stroke-opacity:1;paint-order:markers fill stroke"
       d="m 153.6237,197.81147 0.22442,0.0354"
       id="path841" />
    <path
       style="fill:#ffffff;fill-opacity:1;fill-rule:evenodd;stroke:#000000;stroke-width:0.5;stroke-linecap:round;stroke-linejoin:round;stroke-miterlimit:4;stroke-dasharray:none;stroke-opacity:1;paint-order:markers fill stroke"
       d="m 150.25735,198.72098 c 1.1809,2.34109 2.40619,1.75259 3.64983,-0.0472 z"
       id="path843"
       sodipodi:nodetypes="ccc" />
    <path
       style="fill:none;fill-opacity:1;fill-rule:evenodd;stroke:#000000;stroke-width:0.8;stroke-linecap:round;stroke-linejoin:round;stroke-miterlimit:4;stroke-dasharray:none;stroke-opacity:1;paint-order:markers fill stroke"
       id="path1437"
       sodipodi:type="arc"
       sodipodi:cx="141.91589"
       sodipodi:cy="220.87202"
       sodipodi:rx="1.9365444"
       sodipodi:ry="2.3815956"
       sodipodi:start="2.4909514"
       sodipodi:end="2.4701819"
       sodipodi:open="true"
       sodipodi:arc-type="arc"
       d="m 140.37499,222.31455 a 1.9365444,2.3815956 0 0 1 0.35996,-3.33003 1.9365444,2.3815956 0 0 1 2.70958,0.42538 1.9365444,2.3815956 0 0 1 -0.33182,3.33445 1.9365444,2.3815956 0 0 1 -2.71302,-0.39076" />
    <path
       sodipodi:nodetypes="ccccccccc"
       id="path835-4"
       d="m 96.600288,223.44673 c -1.89635,1.91906 -12.93048,1.67918 -14.62559,0.36404 -0.65976,-1.62838 -0.4918,-2.94636 0.94695,-3.78779 -0.43782,-1.1063 -1.62192,-2.62191 1.72679,-4.34481 -0.80148,-1.05904 -0.36029,-1.84273 1.45725,-2.50209 1.91507,0.91611 4.50406,0.066 6.78676,-1.11859 1.03264,0.84084 2.11371,1.98038 0.64024,3.51604 1.0211,0.52877 3.16681,1.29793 1.78604,4.09174 1.13485,0.84981 2.08255,1.97637 1.28156,3.78146 z"
       style="fill:#ff5041;fill-opacity:1;fill-rule:evenodd;stroke:#000000;stroke-width:1.1;stroke-linecap:round;stroke-linejoin:round;stroke-miterlimit:4;stroke-dasharray:none;stroke-opacity:1;paint-order:markers fill stroke" />
    <path
       sodipodi:nodetypes="cccccc"
       id="path862"
       d="m 138.1125,169.33333 -0.52917,1.5875 1.32292,-1.05833 h -1.5875 c 0.44097,0.35278 1.39285,1.11431 1.32292,1.05833 z"
       style="fill:none;fill-opacity:1;fill-rule:evenodd;stroke:#000000;stroke-width:0.1;stroke-linecap:round;stroke-linejoin:round;stroke-miterlimit:4;stroke-dasharray:none;paint-order:markers fill stroke" />
    <path
       sodipodi:nodetypes="cccccccccccc"
       id="path864"
       d="m 136.13838,181.72637 c -0.41397,-0.0845 0.0613,-1.39308 0.36202,-2.29069 -0.65775,-0.52877 -1.69694,-1.09209 -1.39639,-1.58677 0.24463,-0.35866 1.15733,-0.14354 2.0141,-0.20056 0.23736,-0.7129 0.51749,-1.72555 0.98265,-1.65548 0.44903,-0.0324 0.6975,0.95689 0.95467,1.65516 0.81197,0.0121 1.89995,-0.12697 2.03027,0.19085 0.33278,0.57584 -0.73567,0.97836 -1.39031,1.50721 0.29801,0.89761 0.65614,2.31255 0.23493,2.35901 -0.25798,0.37038 -1.13473,-0.62456 -1.84363,-1.1957 -0.7218,0.57996 -1.6442,1.56641 -1.94827,1.21689 z"
       style="fill:#4a9fff;fill-opacity:1;fill-rule:evenodd;stroke:#000000;stroke-width:0.504;stroke-linecap:round;stroke-linejoin:round;stroke-miterlimit:4;stroke-dasharray:none;paint-order:markers fill stroke" />
    <path
       sodipodi:nodetypes="ccc"
       id="path866"
       d="m 150.3164,176.90703 c 3.18625,0.0774 2.07033,5.3246 0,5.15937 -2.30286,0.25838 -3.0718,-5.17732 0,-5.15937 z"
       style="fill:#ffd54a;fill-opacity:1;fill-rule:evenodd;stroke:#000000;stroke-width:0.504;stroke-linecap:round;stroke-linejoin:round;stroke-miterlimit:4;stroke-dasharray:none;paint-order:markers fill stroke" />
    <path
       style="fill:#5e92ff;fill-opacity:1;fill-rule:evenodd;stroke:#000000;stroke-width:1.1;stroke-linecap:round;stroke-linejoin:round;stroke-miterlimit:4;stroke-dasharray:none;stroke-opacity:1;paint-order:markers fill stroke"
       d="m 99.642031,226.25386 c 1.896349,1.91906 12.930469,1.67918 14.625579,0.36404 0.65976,-1.62838 0.4918,-2.94636 -0.94695,-3.78779 0.43782,-1.1063 1.62192,-2.62191 -1.72679,-4.34481 0.80148,-1.05904 0.36029,-1.84273 -1.45725,-2.50209 -1.91507,0.91611 -4.50406,0.066 -6.78675,-1.11859 -1.03264,0.84084 -2.11371,1.98038 -0.64024,3.51604 -1.0211,0.52877 -3.166809,1.29793 -1.78604,4.09174 -1.134849,0.84981 -2.082549,1.97637 -1.281559,3.78146 z"
       id="path835-4-4"
       sodipodi:nodetypes="ccccccccc" />
    <path
       sodipodi:nodetypes="ccc"
       id="path837-7"
       d="m 103.72454,222.68853 c 0.046,-3.52052 6.62425,-3.51937 6.7832,-0.11337 0.42164,2.77071 -6.2787,4.61433 -6.7832,0.11337 z"
       style="fill:#e5e3b3;fill-opacity:1;fill-rule:evenodd;stroke:#000000;stroke-width:1.1;stroke-linecap:round;stroke-linejoin:round;stroke-miterlimit:4;stroke-dasharray:none;stroke-opacity:1;paint-order:markers fill stroke" />
    <path
       style="fill:#e5e3b3;fill-opacity:1;fill-rule:evenodd;stroke:#000000;stroke-width:1.1;stroke-linecap:round;stroke-linejoin:round;stroke-miterlimit:4;stroke-dasharray:none;stroke-opacity:1;paint-order:markers fill stroke"
       d="m 85.820317,219.71346 c 0.046,-3.52052 6.62425,-3.51937 6.7832,-0.11337 0.42164,2.77071 -6.2787,4.61433 -6.7832,0.11337 z"
       id="path837-7-6"
       sodipodi:nodetypes="ccc" />
    <path
       id="path917"
       d="m 105.33334,222.22705 0.86529,1.0056"
       style="fill:#ff5041;fill-opacity:1;fill-rule:evenodd;stroke:#000000;stroke-width:0.504;stroke-linecap:round;stroke-linejoin:round;stroke-miterlimit:4;stroke-dasharray:none;paint-order:markers fill stroke" />
    <path
       id="path919"
       d="m 107.97597,223.44313 1.02899,-1.12253"
       style="fill:#ff5041;fill-opacity:1;fill-rule:evenodd;stroke:#000000;stroke-width:0.504;stroke-linecap:round;stroke-linejoin:round;stroke-miterlimit:4;stroke-dasharray:none;paint-order:markers fill stroke" />
    <path
       style="fill:#ff5041;fill-opacity:1;fill-rule:evenodd;stroke:#000000;stroke-width:0.504;stroke-linecap:round;stroke-linejoin:round;stroke-miterlimit:4;stroke-dasharray:none;paint-order:markers fill stroke"
       d="m 91.157952,219.39358 -0.86529,1.0056"
       id="path917-5" />
    <path
       style="fill:#ff5041;fill-opacity:1;fill-rule:evenodd;stroke:#000000;stroke-width:0.504;stroke-linecap:round;stroke-linejoin:round;stroke-miterlimit:4;stroke-dasharray:none;paint-order:markers fill stroke"
       d="m 88.515322,220.60966 -1.02899,-1.12253"
       id="path919-8" />
    <path
       id="path939"
       d="m 69.05226,225.22895 3.507912,6.73519 3.695001,-6.59487 -2.198293,0.23386 -1.403165,2.94664 -1.917657,-3.1805 z"
       style="fill:#ffe416;fill-opacity:1;fill-rule:evenodd;stroke:#000000;stroke-width:0.504;stroke-linecap:round;stroke-linejoin:round;stroke-miterlimit:4;stroke-dasharray:none;paint-order:markers fill stroke" />
    <path
       sodipodi:nodetypes="ccccccccccccc"
       id="path941"
       d="m 77.74361,226.59997 -3.648225,1.12253 -0.100394,3.10614 1.83214,-0.46962 -0.04109,1.20022 -1.62132,0.0319 -0.451772,1.72918 3.689771,-1.14851 0.0253,-3.34539 -1.725337,0.52868 0.03684,-1.08525 1.228945,0.0812 z"
       style="fill:#ffe416;fill-opacity:1;fill-rule:evenodd;stroke:#000000;stroke-width:0.504;stroke-linecap:round;stroke-linejoin:round;stroke-miterlimit:4;stroke-dasharray:none;paint-order:markers fill stroke" />
  </g>
</svg>
