<?xml version="1.0" encoding="UTF-8" standalone="no"?>
<svg
   xmlns:dc="http://purl.org/dc/elements/1.1/"
   xmlns:cc="http://creativecommons.org/ns#"
   xmlns:rdf="http://www.w3.org/1999/02/22-rdf-syntax-ns#"
   xmlns:svg="http://www.w3.org/2000/svg"
   xmlns="http://www.w3.org/2000/svg"
   xmlns:sodipodi="http://sodipodi.sourceforge.net/DTD/sodipodi-0.dtd"
   xmlns:inkscape="http://www.inkscape.org/namespaces/inkscape"
   inkscape:export-ydpi="400"
   inkscape:export-xdpi="400"
   inkscape:export-filename="D:\Prog\NodeJS\PooTimeAdventure\pootime-adventure-mobile-app\assets\expressions\horrormask.png"
   width="91.234756mm"
   height="101.85557mm"
   viewBox="0 0 91.234761 101.85557"
   version="1.1"
   id="svg8"
   inkscape:version="1.0 (4035a4fb49, 2020-05-01)"
   sodipodi:docname="pootimeadventure-backup.svg">
  <defs
     id="defs2">
    <inkscape:path-effect
       effect="bspline"
       id="path-effect5455"
       is_visible="true"
       lpeversion="1"
       weight="33.333333"
       steps="2"
       helper_size="0"
       apply_no_weight="true"
       apply_with_weight="true"
       only_selected="false" />
    <inkscape:path-effect
       effect="bspline"
       id="path-effect2128"
       is_visible="true"
       lpeversion="1"
       weight="33.333333"
       steps="2"
       helper_size="0"
       apply_no_weight="true"
       apply_with_weight="true"
       only_selected="false" />
    <inkscape:path-effect
       only_selected="false"
       apply_with_weight="true"
       apply_no_weight="true"
       helper_size="0"
       steps="2"
       weight="33.333333"
       lpeversion="1"
       is_visible="true"
       id="path-effect1875"
       effect="bspline" />
    <inkscape:path-effect
       only_selected="false"
       apply_with_weight="true"
       apply_no_weight="true"
       helper_size="0"
       steps="2"
       weight="33.333333"
       lpeversion="1"
       is_visible="true"
       id="path-effect1824"
       effect="bspline" />
  </defs>
  <sodipodi:namedview
     inkscape:snap-smooth-nodes="true"
     inkscape:snap-text-baseline="false"
     inkscape:snap-center="false"
     inkscape:snap-object-midpoints="false"
     fit-margin-bottom="0"
     fit-margin-right="0"
     fit-margin-left="0"
     fit-margin-top="0"
     id="base"
     pagecolor="#ffffff"
     bordercolor="#666666"
     borderopacity="1.0"
     inkscape:pageopacity="0.0"
     inkscape:pageshadow="2"
     inkscape:zoom="1.0000001"
     inkscape:cx="172.92078"
     inkscape:cy="292.21646"
     inkscape:document-units="mm"
     inkscape:current-layer="layer1"
     inkscape:document-rotation="0"
     showgrid="true"
     inkscape:window-width="1920"
     inkscape:window-height="1001"
     inkscape:window-x="-9"
     inkscape:window-y="-9"
     inkscape:window-maximized="1"
     inkscape:snap-others="true"
     inkscape:snap-nodes="true"
     showguides="false"
     inkscape:snap-grids="false"
     inkscape:object-nodes="true">
    <inkscape:grid
       originy="336.23278"
       originx="1319.004"
       id="grid860"
       type="xygrid" />
  </sodipodi:namedview>
  <metadata
     id="metadata5">
    <rdf:RDF>
      <cc:Work
         rdf:about="">
        <dc:format>image/svg+xml</dc:format>
        <dc:type
           rdf:resource="http://purl.org/dc/dcmitype/StillImage" />
        <dc:title></dc:title>
      </cc:Work>
    </rdf:RDF>
  </metadata>
  <g
     transform="translate(1319.0039,336.23276)"
     inkscape:label="Calque 1"
     inkscape:groupmode="layer"
     id="layer1">
    <g
       transform="translate(44.555416,0.31608921)"
       id="g1902">
      <path
         style="display:inline;fill:#b48b57;fill-opacity:1;fill-rule:evenodd;stroke:#000000;stroke-width:1.7;stroke-linecap:round;stroke-linejoin:round;paint-order:markers fill stroke"
         d="m -1297.4476,-291.98306 c 7.7352,1.13258 14.3384,3.2974 17.8121,8.31547 -4.9066,0.34686 -7.9111,2.74209 -9.5439,6.61459 -3.3392,-5.48924 -9.4596,-7.99851 -14.3631,-11.81176 -0.6105,-2.51411 -0.8106,-4.79919 6.0949,-3.1183 z"
         id="path905-6"
         sodipodi:nodetypes="ccccc"
         inkscape:export-xdpi="799"
         inkscape:export-ydpi="799" />
      <path
         sodipodi:nodetypes="ccccc"
         id="path927-3-5"
         d="m -1304.1776,-238.79595 c 0.4244,1.61801 -1.6174,3.01651 -4.1761,-0.90204 0.055,1.7107 -0.2468,4.98872 -4.4433,1.23612 1.812,2.69694 -0.7224,3.69119 -3.3409,2.20497 0.7518,-10.60333 3.4433,-15.3566 11.9603,-2.53905 z"
         style="display:inline;fill:#e3a968;fill-opacity:1;fill-rule:evenodd;stroke:#000000;stroke-width:1.7;stroke-linecap:round;stroke-linejoin:round;paint-order:markers fill stroke"
         inkscape:export-xdpi="799"
         inkscape:export-ydpi="799" />
      <path
         sodipodi:nodetypes="cccc"
         id="path929-6-3"
         d="m -1292.3509,-241.46863 c 0.5661,2.64998 0.2782,3.80422 -2.372,0.90201 1.7603,3.00582 -1.4191,3.37023 -3.6416,1.70387 -7.1311,-12.05508 1.6732,-4.59752 6.0136,-2.60588 z"
         style="display:inline;fill:#e3a968;fill-opacity:1;fill-rule:evenodd;stroke:#000000;stroke-width:1.7;stroke-linecap:round;stroke-linejoin:round;paint-order:markers fill stroke"
         inkscape:export-xdpi="799"
         inkscape:export-ydpi="799" />
      <path
         style="display:inline;fill:#fbefdf;fill-opacity:1;fill-rule:evenodd;stroke:#000000;stroke-width:1.7;stroke-linecap:round;stroke-linejoin:round;paint-order:markers fill stroke"
         d="m -1286.9115,-272.18654 c 0.1468,2.11275 4.5119,12.99404 -6.7089,19.49259 0.2476,0.62577 -0.057,3.57246 -1.0691,9.48807 l 2.3386,1.73725 c -4.0102,0.29558 -6.954,0.89583 -6.0136,2.60588 -1.9377,-1.70848 -3.8754,-2.46991 -5.8131,0.0668 -0.1322,-2.1535 -8.4484,-4.84152 -11.9603,2.53905 -0.9996,-0.54223 -1.5571,0.0942 -3.5413,-3.0736 1.3987,-16.59725 0.611,-15.48374 0.3341,-18.50841 -0.9389,-21.97409 0.6115,-34.09459 5.4562,-38.96952 14.5375,10.3091 33.0688,17.43112 26.9774,24.62189 z"
         id="path909-7"
         sodipodi:nodetypes="ccccccccccc"
         inkscape:export-xdpi="799"
         inkscape:export-ydpi="799" />
      <path
         style="display:inline;fill:#b48b57;fill-opacity:1;fill-rule:evenodd;stroke:#000000;stroke-width:1.7;stroke-linecap:round;stroke-linejoin:round;paint-order:markers fill stroke"
         d="m -1309.2594,-287.30561 c 3.2753,4.37732 2.7116,8.26993 1.6064,13.32367 -10.24,-3.4812 -17.7782,-3.29078 -18.2373,6.52008 -6.9899,-4.20325 0.053,-10.72165 0,-16.15848 4.3134,-5.00387 7.5916,-6.8443 16.6309,-3.68527 z"
         id="path901-5"
         sodipodi:nodetypes="ccccc"
         inkscape:export-xdpi="799"
         inkscape:export-ydpi="799" />
      <path
         style="display:inline;fill:#b48b57;fill-opacity:1;fill-rule:evenodd;stroke:#000000;stroke-width:1.7;stroke-linecap:round;stroke-linejoin:round;paint-order:markers fill stroke"
         d="m -1307.7857,-288.57491 c 5.9659,-0.0104 14.9173,-4.08058 15.9025,-13.16302 7.139,-3.11362 18.7484,-10.20943 12.6953,-31.33735 l 6.0136,-0.86863 c -8.6624,-1.94013 -17.403,-5.02923 -24.8561,10.82442 -2.9492,3.09808 -6.2906,6.02517 -7.4835,9.88897 -6.8691,1.74721 -13.7698,3.65322 -20.8153,6.28263 -5.1687,-0.55919 -9.4245,0.93553 -13.9298,1.86909 -10.6784,-1.73287 -16.97,5.21356 -22.4506,13.76438 2.0555,-1.68627 4.2008,-3.28276 7.6172,-3.60814 6.4722,14.37149 15.2447,10.34091 23.9206,7.08265 3.4834,6.76053 13.0978,2.86876 15.3012,1.80407"
         id="path874-2-0"
         sodipodi:nodetypes="cccccccccccc"
         inkscape:export-xdpi="799"
         inkscape:export-ydpi="799" />
      <path
         sodipodi:nodetypes="ccccc"
         id="path925-3-9-3"
         d="m -1291.8832,-301.73793 c -2.7184,-3.55398 -8.7973,-13.01765 -6.1472,-21.38156 4.5139,-8.81016 10.1575,-16.06211 24.8561,-10.82442 l -6.0136,0.86863 c 6.4195,22.29919 -5.7412,27.57989 -12.6953,31.33735 z"
         style="display:inline;fill:#e3a968;fill-opacity:1;fill-rule:evenodd;stroke:#000000;stroke-width:1.7;stroke-linecap:round;stroke-linejoin:round;paint-order:markers fill stroke"
         inkscape:export-xdpi="799"
         inkscape:export-ydpi="799" />
      <path
         style="display:inline;fill:none;fill-rule:evenodd;stroke:#000000;stroke-width:1.7;stroke-linecap:round;stroke-linejoin:round;paint-order:markers fill stroke"
         d="m -1307.4167,-250.54742 c 4.5148,0.3344 9.035,0.6 13.7963,-2.14653"
         id="path915-7"
         sodipodi:nodetypes="cc"
         inkscape:export-xdpi="799"
         inkscape:export-ydpi="799" />
      <path
         style="display:inline;fill:none;fill-rule:evenodd;stroke:#000000;stroke-width:1.7;stroke-linecap:round;stroke-linejoin:round;paint-order:markers fill stroke"
         d="m -1301.6053,-240.43656 c 0.1588,-3.20113 1.1495,-6.98457 0.189,-9.40216"
         id="path917-1"
         sodipodi:nodetypes="cc"
         inkscape:export-xdpi="799"
         inkscape:export-ydpi="799" />
      <path
         style="display:inline;fill:#e3a968;fill-opacity:1;fill-rule:evenodd;stroke:#000000;stroke-width:1.7;stroke-linecap:round;stroke-linejoin:round;paint-order:markers fill stroke"
         d="m -1306.7553,-269.49348 c 0.887,1.9278 3.2263,2.60861 0.4915,4.87595 -1.3166,0.28916 -0.5623,-0.28561 -1.7671,-1.00169 1.3422,1.90774 3.3593,1.47149 1.79,4.61105 -2.5607,1.84559 -2.5614,0.61183 -4.2941,-0.97303 1.0264,0.009 1.2378,2.82405 0.4536,3.61242 -0.9753,0.98032 -2.6563,0.6314 -4.0444,-0.87209 -5.2648,-7.56283 -4.2654,-11.7628 7.3705,-10.25261 z"
         id="path911-5"
         sodipodi:nodetypes="cscccccc"
         inkscape:export-xdpi="799"
         inkscape:export-ydpi="799" />
      <path
         style="display:inline;fill:#e3a968;fill-opacity:1;fill-rule:evenodd;stroke:#000000;stroke-width:1.7;stroke-linecap:round;stroke-linejoin:round;paint-order:markers fill stroke"
         d="m -1280.8482,-265.48804 c -1.7991,1.44407 -3.2609,2.65671 -4.3866,2.5376 -1.4583,-0.44367 0.2929,-4.21972 2.6058,-7.21628 -2.9674,4.59825 -4.7662,4.00445 -4.2825,-2.01984 0.6752,-8.93009 9.9627,-10.02415 6.0633,6.69852 z"
         id="path913-7"
         sodipodi:nodetypes="ccccc"
         inkscape:export-xdpi="799"
         inkscape:export-ydpi="799" />
      <path
         style="display:inline;fill:#fbefdf;fill-opacity:1;fill-rule:evenodd;stroke:#000000;stroke-width:1.7;stroke-linecap:round;stroke-linejoin:round;paint-order:markers fill stroke"
         d="m -1281.3364,-283.3841 c 8.5655,14.8152 3.2544,17.49679 1.0395,19.18229 -1.1883,-6.32133 -2.9254,-10.66703 -6.6146,-7.98475 -0.4962,-3.00739 -1.4087,-3.79507 -2.2679,-4.86644 1.4701,-3.68204 5.4502,-6.82868 7.843,-6.3311 z"
         id="path907-2"
         sodipodi:nodetypes="ccccc"
         inkscape:export-xdpi="799"
         inkscape:export-ydpi="799" />
      <path
         style="display:inline;fill:#fbefdf;fill-opacity:1;fill-rule:evenodd;stroke:#000000;stroke-width:1.7;stroke-linecap:round;stroke-linejoin:round;paint-order:markers fill stroke"
         d="m -1307.653,-273.98194 c 2.4455,5.74337 -3.2568,12.95881 -8.1737,15.92224 -6.564,0.75105 -8.1352,-4.54173 -10.0636,-9.40216 1.0017,-11.51356 11.1876,-8.66133 18.2373,-6.52008 z"
         id="path903-5"
         sodipodi:nodetypes="cccc"
         inkscape:export-xdpi="799"
         inkscape:export-ydpi="799" />
      <path
         d="m -1331.1718,-287.83991 c 0.071,0.3541 2.3205,3.53991 3.5185,2.92498 m 0,0 c 2.029,-0.99195 5.1958,-0.554 6.3705,-3.3593 l 7.3939,-8.5342 m -4.9616,-7.69509 c 3.8772,2.72384 4.7946,5.23627 4.9616,7.69509 m -17.2829,8.96852 c -1.1992,-4.63615 -5.659,-17.72088 12.3213,-16.66361"
         style="display:inline;fill:#fbefdf;fill-opacity:1;fill-rule:evenodd;stroke:#000000;stroke-width:1.7;stroke-linecap:round;stroke-linejoin:round;stroke-miterlimit:4;stroke-dasharray:none;stroke-opacity:1;paint-order:markers fill stroke"
         id="path3329-7"
         inkscape:export-xdpi="799"
         inkscape:export-ydpi="799" />
      <path
         style="display:inline;fill:none;fill-rule:evenodd;stroke:#000000;stroke-width:1.7;stroke-linecap:round;stroke-linejoin:round;paint-order:markers fill stroke"
         d="m -1318.8505,-304.50352 c 8.4074,-8.80121 19.3753,-4.33988 21.1194,-1.27567"
         id="path921-1-2"
         sodipodi:nodetypes="cc"
         inkscape:export-xdpi="799"
         inkscape:export-ydpi="799" />
      <path
         d="m -1331.5143,-317.08572 a 3.1950096,9.9115277 76.179744 0 1 0.7218,-4.77813 3.1950096,9.9115277 76.179744 0 1 13.6029,-2.7586 3.1950096,9.9115277 76.179744 0 1 -0.5806,4.74949 3.1950096,9.9115277 76.179744 0 1 -13.6089,2.80792 m -7.3415,4.07426 a 6.4728418,20.079987 76.179744 0 1 1.4624,-9.68012 6.4728418,20.079987 76.179744 0 1 27.5583,-5.58872 6.4728418,20.079987 76.179744 0 1 -1.1761,9.62209 6.4728418,20.079987 76.179744 0 1 -27.5706,5.68864"
         style="display:inline;fill:#ffcc00;fill-opacity:1;fill-rule:evenodd;stroke:#000000;stroke-width:1.7;stroke-linecap:round;stroke-linejoin:round;stroke-miterlimit:4;stroke-dasharray:none;paint-order:markers fill stroke"
         id="path933-4-8-5"
         inkscape:export-xdpi="799"
         inkscape:export-ydpi="799" />
      <path
         sodipodi:nodetypes="cccccc"
         id="path923-4-1-0"
         d="m -1332.8422,-297.06071 c -2.148,-7.56082 -4.2519,-6.60244 -7.4168,-8.01809 -13.99,-1.51222 -20.0696,9.50152 -22.4506,13.76438 2.4609,-2.45345 4.9786,-3.99691 7.6172,-3.60814 7.5548,16.31656 18.5525,8.148 23.9206,7.08265 7.8749,-2.41658 3.9969,-5.74897 -1.6704,-9.2208 z"
         style="display:inline;fill:#e3a968;fill-opacity:1;fill-rule:evenodd;stroke:#000000;stroke-width:1.7;stroke-linecap:round;stroke-linejoin:round;paint-order:markers fill stroke"
         inkscape:export-xdpi="799"
         inkscape:export-ydpi="799" />
      <path
         sodipodi:nodetypes="cccccc"
         id="path3349-9"
         d="m -1331.1718,-287.83991 c -6.1061,-19.51652 11.1001,-16.75759 12.3213,-16.66361 1.7155,1.47583 4.7144,3.33624 4.9616,7.69509 0.5593,3.95026 0.2121,7.56913 -7.3939,8.5342 -1.3086,1.9649 -2.7058,3.8378 -6.3705,3.3593 -0.9731,-0.0296 -2.0259,-0.43672 -3.5185,-2.92498 z"
         style="fill:#fbefdf;fill-opacity:1;fill-rule:evenodd;stroke:#000000;stroke-width:1.7;stroke-linecap:round;stroke-linejoin:round;stroke-miterlimit:4;stroke-dasharray:none;stroke-opacity:1;paint-order:markers fill stroke"
         inkscape:export-xdpi="799"
         inkscape:export-ydpi="799" />
      <path
         sodipodi:nodetypes="ccc"
         id="path880-7-3-9"
         d="m -1328.2527,-295.29035 c -1.2211,-4.82064 8.2358,-6.31122 9.355,-2.03163 -0.011,2.15509 -6.7431,5.76621 -9.355,2.03163 z"
         style="display:inline;fill:#ffffff;fill-opacity:1;fill-rule:evenodd;stroke:#000000;stroke-width:1.7;stroke-linecap:round;stroke-linejoin:round;paint-order:markers fill stroke"
         inkscape:export-xdpi="799"
         inkscape:export-ydpi="799" />
      <path
         sodipodi:nodetypes="ccsc"
         id="path897-4-6-6"
         d="m -1324.3283,-293.93739 c -1.3406,-4.02582 0.4486,-4.57097 2.1705,-5.53432 1.3101,0.087 2.622,0.43811 3.2012,2.2269 0.2884,0.89071 -2.9108,3.31564 -5.3717,3.30742 z"
         style="display:inline;fill:#512d30;fill-opacity:1;fill-rule:evenodd;stroke:#000000;stroke-width:1.7;stroke-linecap:round;stroke-linejoin:round;paint-order:markers fill stroke"
         inkscape:export-xdpi="799"
         inkscape:export-ydpi="799" />
      <path
         sodipodi:nodetypes="cccc"
         id="path950-9-5-4"
         d="m -1321.3497,-294.75551 c -0.8383,-0.44436 -1.5391,-2.89251 0.6181,-3.90882 1.216,-0.0258 1.6346,0.57246 1.8339,1.34235 -0.3756,1.51635 -1.4833,1.93743 -2.452,2.56647 z"
         style="display:inline;fill:#ffffff;fill-opacity:1;fill-rule:evenodd;stroke:#000000;stroke-width:1.7;stroke-linecap:round;stroke-linejoin:round;stroke-miterlimit:4;stroke-dasharray:none;paint-order:markers fill stroke"
         inkscape:export-xdpi="799"
         inkscape:export-ydpi="799" />
      <path
         style="display:inline;fill:#ffffff;fill-opacity:1;fill-rule:evenodd;stroke:#000000;stroke-width:1.7;stroke-linecap:round;stroke-linejoin:round;paint-order:markers fill stroke"
         d="m -1310.7631,-300.51174 c -1.2211,-4.82064 8.2358,-6.31122 9.355,-2.03163 -0.011,2.15509 -6.7431,5.76621 -9.355,2.03163 z"
         id="path880-7-3-4-8"
         sodipodi:nodetypes="ccc"
         inkscape:export-xdpi="799"
         inkscape:export-ydpi="799" />
      <path
         style="display:inline;fill:#512d30;fill-opacity:1;fill-rule:evenodd;stroke:#000000;stroke-width:1.7;stroke-linecap:round;stroke-linejoin:round;paint-order:markers fill stroke"
         d="m -1306.8387,-299.15878 c -1.3406,-4.02582 0.4487,-4.57097 2.1705,-5.53432 1.3101,0.087 2.622,0.43811 3.2012,2.2269 0.2884,0.89071 -2.9108,3.31564 -5.3717,3.30742 z"
         id="path897-4-6-8-7"
         sodipodi:nodetypes="ccsc"
         inkscape:export-xdpi="799"
         inkscape:export-ydpi="799" />
      <path
         style="display:inline;fill:#ffffff;fill-opacity:1;fill-rule:evenodd;stroke:#000000;stroke-width:1.7;stroke-linecap:round;stroke-linejoin:round;stroke-miterlimit:4;stroke-dasharray:none;paint-order:markers fill stroke"
         d="m -1303.86,-299.9769 c -0.8383,-0.44436 -1.5392,-2.89251 0.618,-3.90882 1.216,-0.0258 1.6346,0.57246 1.8339,1.34235 -0.3756,1.51635 -1.4833,1.93743 -2.4519,2.56647 z"
         id="path950-9-5-5-8"
         sodipodi:nodetypes="cccc"
         inkscape:export-xdpi="799"
         inkscape:export-ydpi="799" />
      <path
         style="display:inline;fill:#e3a968;fill-opacity:1;fill-rule:evenodd;stroke:#000000;stroke-width:1.7;stroke-linecap:round;stroke-linejoin:round;paint-order:markers fill stroke"
         d="m -1322.2851,-289.57717 c 2.7756,-2.35608 3.2579,-6.15113 6.6149,-6.88219 6.6024,-0.81773 7.7557,1.73319 10.4235,1.26953 1.1317,5.93173 -10.328,13.3599 -17.0384,5.61266 z"
         id="path876-2-9-7-5"
         sodipodi:nodetypes="cccc"
         inkscape:export-xdpi="799"
         inkscape:export-ydpi="799" />
      <path
         style="display:inline;fill:none;fill-rule:evenodd;stroke:#000000;stroke-width:1.7;stroke-linecap:round;stroke-linejoin:round;paint-order:markers fill stroke"
         d="m -1319.4788,-290.27875 c 0.9243,0.214 1.8486,0.0475 2.773,-1.06908 1.7619,-2.23523 3.2008,-1.45478 4.7106,-1.33634 1.3948,0.028 2.8363,0.33585 3.9756,-1.16931"
         id="path878-9-6-0-9"
         sodipodi:nodetypes="cccc"
         inkscape:export-xdpi="799"
         inkscape:export-ydpi="799" />
    </g>
  </g>
</svg>
