<?xml version="1.0" encoding="UTF-8" standalone="no"?>
<svg
   xmlns:dc="http://purl.org/dc/elements/1.1/"
   xmlns:cc="http://creativecommons.org/ns#"
   xmlns:rdf="http://www.w3.org/1999/02/22-rdf-syntax-ns#"
   xmlns:svg="http://www.w3.org/2000/svg"
   xmlns="http://www.w3.org/2000/svg"
   xmlns:sodipodi="http://sodipodi.sourceforge.net/DTD/sodipodi-0.dtd"
   xmlns:inkscape="http://www.inkscape.org/namespaces/inkscape"
   inkscape:export-ydpi="400"
   inkscape:export-xdpi="400"
   inkscape:export-filename="D:\Prog\NodeJS\PooTimeAdventure\pootime-adventure-mobile-app\assets\expressions\monster.png"
   width="21.986233mm"
   height="20.615223mm"
   viewBox="0 0 21.986233 20.615223"
   version="1.1"
   id="svg8"
   inkscape:version="1.0 (4035a4fb49, 2020-05-01)"
   sodipodi:docname="pooUlti.svg">
  <defs
     id="defs2" />
  <sodipodi:namedview
     fit-margin-bottom="0"
     fit-margin-right="0"
     fit-margin-left="0"
     fit-margin-top="0"
     id="base"
     pagecolor="#ffffff"
     bordercolor="#666666"
     borderopacity="1.0"
     inkscape:pageopacity="0.0"
     inkscape:pageshadow="2"
     inkscape:zoom="2.8284271"
     inkscape:cx="6.4476792"
     inkscape:cy="16.787684"
     inkscape:document-units="mm"
     inkscape:current-layer="layer1"
     inkscape:document-rotation="0"
     showgrid="false"
     inkscape:window-width="1920"
     inkscape:window-height="1001"
     inkscape:window-x="-9"
     inkscape:window-y="-9"
     inkscape:window-maximized="1">
    <inkscape:grid
       originy="-146.60803"
       originx="-93.355649"
       id="grid860"
       type="xygrid" />
  </sodipodi:namedview>
  <metadata
     id="metadata5">
    <rdf:RDF>
      <cc:Work
         rdf:about="">
        <dc:format>image/svg+xml</dc:format>
        <dc:type
           rdf:resource="http://purl.org/dc/dcmitype/StillImage" />
        <dc:title></dc:title>
      </cc:Work>
    </rdf:RDF>
  </metadata>
  <g
     transform="translate(-93.355648,-146.60804)"
     inkscape:label="Calque 1"
     inkscape:groupmode="layer"
     id="layer1">
    <path
       style="fill:#ffd862;fill-opacity:1;fill-rule:evenodd;stroke:#000000;stroke-width:0.903999;stroke-linecap:round;stroke-linejoin:round;stroke-miterlimit:4;stroke-dasharray:none;paint-order:markers fill stroke"
       d="m 98.360897,151.52984 1.035636,-3.60455 3.505737,1.9141 3.56717,-2.77938 1.46794,3.57645 4.57461,1.1e-4 -1.41704,3.40073 3.79496,2.21686 -2.92566,2.97794 1.69433,3.16089 -3.58849,0.65614 -0.98554,3.32392 -3.55582,-2.67851 -3.38342,3.07675 -1.87489,-3.67871 -4.895365,0.96673 1.221229,-4.12235 -2.788667,-1.9556 3.086726,-2.4247 -1.957462,-2.74368 z"
       id="path943-2"
       sodipodi:nodetypes="ccccccccccccccccccccc" />
    <path
       style="fill:#c8a000;fill-opacity:1;fill-rule:evenodd;stroke:#000000;stroke-width:0.936956;stroke-linecap:round;stroke-linejoin:round;stroke-miterlimit:4;stroke-dasharray:none;stroke-opacity:1;paint-order:markers fill stroke"
       d="m 97.9787,160.60282 c 1.61527,1.63461 11.01392,1.43029 12.45778,0.31008 0.56197,-1.38702 0.4189,-2.50965 -0.8066,-3.22636 0.37293,-0.94232 1.38152,-2.23329 -1.47084,-3.70082 0.68268,-0.90207 0.30689,-1.5696 -1.24125,-2.13123 -1.63122,0.78033 -3.83647,0.0562 -5.78083,-0.95279 -0.87958,0.71621 -1.80041,1.68685 -0.54534,2.99489 -0.86975,0.4504 -2.69742,1.10555 -1.52131,3.48526 -0.96664,0.72385 -1.77387,1.68343 -1.09161,3.22097 z"
       id="path835-7-3"
       sodipodi:nodetypes="ccccccccc" />
  </g>
</svg>
