<?xml version="1.0" encoding="UTF-8" standalone="no"?>
<svg
   xmlns:dc="http://purl.org/dc/elements/1.1/"
   xmlns:cc="http://creativecommons.org/ns#"
   xmlns:rdf="http://www.w3.org/1999/02/22-rdf-syntax-ns#"
   xmlns:svg="http://www.w3.org/2000/svg"
   xmlns="http://www.w3.org/2000/svg"
   xmlns:sodipodi="http://sodipodi.sourceforge.net/DTD/sodipodi-0.dtd"
   xmlns:inkscape="http://www.inkscape.org/namespaces/inkscape"
   sodipodi:docname="sheep.svg"
   inkscape:version="1.0 (4035a4fb49, 2020-05-01)"
   id="svg8"
   version="1.1"
   viewBox="0 0 109.91629 123.23125"
   height="123.23125mm"
   width="109.91629mm"
   inkscape:export-filename="D:\Prog\NodeJS\PooTimeAdventure\pootime-adventure-mobile-app\assets\ulti\entrouporte.png"
   inkscape:export-xdpi="400"
   inkscape:export-ydpi="400">
  <defs
     id="defs2">
    <inkscape:path-effect
       effect="bspline"
       id="path-effect1824"
       is_visible="true"
       lpeversion="1"
       weight="33.333333"
       steps="2"
       helper_size="0"
       apply_no_weight="true"
       apply_with_weight="true"
       only_selected="false" />
  </defs>
  <sodipodi:namedview
     inkscape:window-maximized="1"
     inkscape:window-y="-9"
     inkscape:window-x="-9"
     inkscape:window-height="1001"
     inkscape:window-width="1920"
     showgrid="true"
     inkscape:document-rotation="0"
     inkscape:current-layer="layer1"
     inkscape:document-units="mm"
     inkscape:cy="-1019.982"
     inkscape:cx="-831.66203"
     inkscape:zoom="0.1767767"
     inkscape:pageshadow="2"
     inkscape:pageopacity="0.0"
     borderopacity="1.0"
     bordercolor="#666666"
     pagecolor="#ffffff"
     id="base"
     fit-margin-top="0"
     fit-margin-left="0"
     fit-margin-right="0"
     fit-margin-bottom="0">
    <inkscape:grid
       type="xygrid"
       id="grid860"
       originx="-354.11594"
       originy="-614.49546" />
  </sodipodi:namedview>
  <metadata
     id="metadata5">
    <rdf:RDF>
      <cc:Work
         rdf:about="">
        <dc:format>image/svg+xml</dc:format>
        <dc:type
           rdf:resource="http://purl.org/dc/dcmitype/StillImage" />
        <dc:title></dc:title>
      </cc:Work>
    </rdf:RDF>
  </metadata>
  <g
     id="layer1"
     inkscape:groupmode="layer"
     inkscape:label="Calque 1"
     transform="translate(-354.11593,-614.49545)">
    <path
       style="display:inline;opacity:1;fill:#f1deca;fill-opacity:1;fill-rule:evenodd;stroke:#000000;stroke-width:2.84665;stroke-linecap:round;stroke-linejoin:round;stroke-miterlimit:4;stroke-dasharray:none;stroke-opacity:1;paint-order:markers fill stroke"
       d="m 402.16666,719.66668 -0.87327,9.69322 c -2.26672,-0.0167 -3.89855,0.43526 -8.29597,0.69863 l -1.2226,-10.74114 c 2.61845,-11.25935 4.6389,-30.56458 10.39184,0.34929 z"
       id="path857-6"
       sodipodi:nodetypes="ccccc"
       inkscape:export-xdpi="799.98169"
       inkscape:export-ydpi="799.98169" />
    <path
       sodipodi:nodetypes="cccc"
       style="display:inline;opacity:1;fill:#f1deca;fill-opacity:1;fill-rule:evenodd;stroke:#000000;stroke-width:2.847;stroke-linecap:round;stroke-linejoin:round;stroke-miterlimit:4;stroke-dasharray:none;stroke-opacity:1;paint-order:markers fill stroke"
       d="m 431.59556,712.41869 0.96059,11.7017 -8.51246,-0.12021 -2.0085,-12.48766 z"
       id="path871-3"
       inkscape:export-xdpi="799.98169"
       inkscape:export-ydpi="799.98169" />
    <path
       sodipodi:nodetypes="ccccc"
       style="display:inline;opacity:1;fill:#f1deca;fill-opacity:1;fill-rule:evenodd;stroke:#000000;stroke-width:2.84665;stroke-linecap:round;stroke-linejoin:round;stroke-miterlimit:4;stroke-dasharray:none;stroke-opacity:1;paint-order:markers fill stroke"
       d="m 373.80033,721.20235 -6.24715,9.91132 -9.03696,-3.66845 4.53979,-10.68877 c 7.86461,-7.5127 11.08127,-5.26466 10.74432,4.4459 z"
       id="path951-4"
       inkscape:export-xdpi="799.98169"
       inkscape:export-ydpi="799.98169" />
    <path
       style="display:inline;opacity:1;fill:#a06e48;fill-opacity:1;fill-rule:evenodd;stroke:#000000;stroke-width:2.84665;stroke-linecap:round;stroke-linejoin:round;stroke-miterlimit:4;stroke-dasharray:none;stroke-opacity:1;paint-order:markers fill stroke"
       d="m 401.29339,729.3599 -0.43665,4.49729 -7.0734,0.96059 -0.78592,-4.75925 z"
       id="path859-3"
       inkscape:export-xdpi="799.98169"
       inkscape:export-ydpi="799.98169" />
    <path
       sodipodi:nodetypes="cccc"
       style="display:inline;opacity:1;fill:#a06e48;fill-opacity:1;fill-rule:evenodd;stroke:#000000;stroke-width:2.84665;stroke-linecap:round;stroke-linejoin:round;stroke-miterlimit:4;stroke-dasharray:none;stroke-opacity:1;paint-order:markers fill stroke"
       d="m 432.55615,724.12033 0.6113,6.81142 -7.8139,-0.20749 -1.30986,-6.72409 z"
       id="path873-1"
       inkscape:export-xdpi="799.98169"
       inkscape:export-ydpi="799.98169" />
    <path
       sodipodi:nodetypes="cccc"
       style="display:inline;opacity:1;fill:#a06e48;fill-opacity:1;fill-rule:evenodd;stroke:#000000;stroke-width:2.847;stroke-linecap:round;stroke-linejoin:round;stroke-miterlimit:4;stroke-dasharray:none;stroke-opacity:1;paint-order:markers fill stroke"
       d="m 367.55318,731.11367 -3.9369,5.18955 -7.56037,-2.87431 2.46031,-5.98369 z"
       id="path953-6"
       inkscape:export-xdpi="799.98169"
       inkscape:export-ydpi="799.98169" />
    <path
       style="display:inline;opacity:1;fill:#ffffff;fill-opacity:1;fill-rule:evenodd;stroke:#000000;stroke-width:2.84665;stroke-linecap:round;stroke-linejoin:round;stroke-miterlimit:4;stroke-dasharray:none;stroke-opacity:1;paint-order:markers fill stroke"
       d="m 406.77427,708.23509 c 0.9908,6.59043 -5.14822,16.14252 -8.92805,6.91092 -0.44959,6.37006 -9.47487,4.91255 -12.31361,-1.35352 3.50829,-7.48717 10.59186,-9.33486 21.24166,-5.5574 z"
       id="path855-8"
       sodipodi:nodetypes="cccc"
       inkscape:export-xdpi="799.98169"
       inkscape:export-ydpi="799.98169" />
    <path
       style="display:inline;opacity:1;fill:#ffffff;fill-opacity:1;fill-rule:evenodd;stroke:#000000;stroke-width:2.84665;stroke-linecap:round;stroke-linejoin:round;stroke-miterlimit:4;stroke-dasharray:none;stroke-opacity:1;paint-order:markers fill stroke"
       d="m 433.32642,698.84924 c 1.96819,5.42471 5.68588,12.6361 0.30866,10.55909 -2.80424,4.21459 -6.93801,4.7797 -9.63289,0.67923 -4.16003,1.38323 -6.49605,1.55954 -8.06351,-1.75638 -0.88839,-10.32303 12.84176,-14.44611 17.38774,-9.48194 z"
       id="path869-2"
       sodipodi:nodetypes="ccccc"
       inkscape:export-xdpi="799.98169"
       inkscape:export-ydpi="799.98169" />
    <path
       style="display:inline;opacity:1;fill:#ffffff;fill-opacity:1;fill-rule:evenodd;stroke:#000000;stroke-width:2.84665;stroke-linecap:round;stroke-linejoin:round;stroke-miterlimit:4;stroke-dasharray:none;stroke-opacity:1;paint-order:markers fill stroke"
       d="m 424.986,629.40387 c 1.71601,-5.76984 -0.56994,-8.30406 -9.78057,-5.23959 1.32811,-9.16312 -21.67963,-15.83376 -19.21177,9.16925 -4.81549,0.71405 -2.80408,4.35385 -1.3099,7.77205 27.54261,21.11492 23.84811,-1.85463 30.30224,-11.70171 z"
       id="path877-7-9"
       sodipodi:nodetypes="ccccc"
       inkscape:export-xdpi="799.98169"
       inkscape:export-ydpi="799.98169" />
    <path
       style="display:inline;opacity:1;fill:#f1deca;fill-opacity:1;fill-rule:evenodd;stroke:#000000;stroke-width:2.84665;stroke-linecap:round;stroke-linejoin:round;stroke-miterlimit:4;stroke-dasharray:none;stroke-opacity:1;paint-order:markers fill stroke"
       d="m 444.63205,666.4692 c 8.28888,-10.29161 15.85513,-23.63353 9.50937,-35.32039 -13.43711,-10.31852 -32.98855,-1.85901 -46.43521,11.7323 -2.32087,0.0784 -2.60384,-0.14567 -7.03938,0.2469 -3.6886,-2.39893 -6.27328,-1.85404 -9.01535,-1.72895 -3.77063,9.52426 4.81713,12.81735 10.12681,13.09078 12.53096,24.09461 33.41383,19.13057 42.85376,11.97936 z"
       id="path875-4"
       sodipodi:nodetypes="ccccccc"
       inkscape:export-xdpi="799.98169"
       inkscape:export-ydpi="799.98169" />
    <path
       style="display:inline;opacity:1;fill:none;fill-opacity:1;fill-rule:evenodd;stroke:#000000;stroke-width:2.84665;stroke-linecap:round;stroke-linejoin:round;stroke-miterlimit:4;stroke-dasharray:none;stroke-opacity:1;paint-order:markers fill stroke"
       d="m 417.25759,641.36755 c 6.28009,2.544 9.0272,-0.0754 9.2566,-6.3748"
       id="path879-3"
       sodipodi:nodetypes="cc"
       inkscape:export-xdpi="799.98169"
       inkscape:export-ydpi="799.98169" />
    <path
       style="display:inline;opacity:1;fill:#ffffff;fill-opacity:1;fill-rule:evenodd;stroke:#000000;stroke-width:2.84665;stroke-linecap:round;stroke-linejoin:round;stroke-miterlimit:4;stroke-dasharray:none;stroke-opacity:1;paint-order:markers fill stroke"
       d="m 436.07641,642.15345 c 2.36243,2.35508 4.50213,2.0375 6.6368,1.65923"
       id="path881-4"
       sodipodi:nodetypes="cc"
       inkscape:export-xdpi="799.98169"
       inkscape:export-ydpi="799.98169" />
    <path
       style="display:inline;opacity:1;fill:#000000;fill-opacity:1;fill-rule:evenodd;stroke:#000000;stroke-width:2.84665;stroke-linecap:round;stroke-linejoin:round;stroke-miterlimit:4;stroke-dasharray:none;stroke-opacity:1;paint-order:markers fill stroke"
       d="m 442.1892,633.5082 5.06495,2.09582 -0.17479,-4.71562 z"
       id="path885-0"
       inkscape:export-xdpi="799.98169"
       inkscape:export-ydpi="799.98169" />
    <path
       sodipodi:nodetypes="ccccsccccccccccccccccc"
       id="path849-4"
       d="m 363.05601,716.75645 c -9.10347,-11.72597 -1.92403,-11.71303 2.46998,-13.70826 -7.61781,-10.15719 -5.63199,-15.92416 -1.85247,-20.87113 -6.25911,0.0453 -10.6648,-4.79247 -6.0514,-6.54541 -4.87019,-3.7569 0.363,-1.27596 0.0414,-3.65816 -0.49849,-3.69201 -2.23846,-12.50977 5.26904,-3.01073 3.41974,-6.33888 5.04258,-2.40973 6.17489,4.32242 4.14645,-6.76822 8.72385,-2.2538 9.13884,-1.60546 3.11885,-5.39978 7.55984,-6.40309 14.07876,-4.69294 -0.40282,-4.7623 1.13377,-6.51154 5.92791,-7.03938 0.63569,-4.98523 -0.68625,-6.41746 8.04502,-4.77227 5.51359,-1.6857 5.13154,3.35882 4.32535,5.0176 5.52532,-4.71078 10.44343,-6.41392 12.7035,1.96771 3.27621,-7.74689 12.58692,-2.63702 14.87562,3.44094 10.67172,0.89576 7.40928,11.52541 3.95019,12.22039 1.91534,3.74201 2.74376,5.00844 -1.29289,7.19572 -8.18468,18.53924 -6.99432,16.02216 -18.2353,17.0466 -2.47871,3.16261 -6.47443,8.6514 -15.85013,6.171 -4.2321,4.62595 -9.0189,7.90825 -15.52066,2.21346 -2.63461,3.3501 -6.66781,2.99308 -9.30243,1.12099 0.1487,6.41372 -2.70164,9.47559 -8.15087,9.63281 -2.31555,-2.83224 -3.71318,-6.64365 -10.7443,-4.4459 z"
       style="display:inline;opacity:1;fill:#ffffff;fill-opacity:1;fill-rule:evenodd;stroke:#000000;stroke-width:2.84665;stroke-linecap:round;stroke-linejoin:round;stroke-miterlimit:4;stroke-dasharray:none;stroke-opacity:1;paint-order:markers fill stroke"
       inkscape:export-xdpi="799.98169"
       inkscape:export-ydpi="799.98169" />
    <path
       style="display:inline;opacity:1;fill:#f8acd6;fill-opacity:1;fill-rule:evenodd;stroke:#000000;stroke-width:2.84665;stroke-linecap:round;stroke-linejoin:round;stroke-miterlimit:4;stroke-dasharray:none;stroke-opacity:1;paint-order:markers fill stroke"
       d="m 408.47991,654.80182 c -2.51114,-1.23637 -5.30195,-8.17272 -7.81308,-11.67381 -3.66399,-2.55293 -6.37741,-2.25419 -9.01535,-1.72895 -2.72933,9.72855 3.15155,11.89054 10.12681,13.09078 0.62941,-0.0603 3.09262,0.0673 6.70162,0.31198 z"
       id="path887-3"
       sodipodi:nodetypes="ccccc"
       inkscape:export-xdpi="799.98169"
       inkscape:export-ydpi="799.98169" />
    <path
       id="path863-3-3"
       d="m 440.51566,690.67961 22.09329,3.41074 -6.97763,16.85744 -11.30007,-2.16122 2.84044,-7.53332 -9.01527,-1.52251 z"
       style="display:inline;opacity:1;fill:#f1deca;fill-opacity:1;fill-rule:evenodd;stroke:#000000;stroke-width:2.84665;stroke-linecap:round;stroke-linejoin:round;stroke-miterlimit:4;stroke-dasharray:none;stroke-opacity:1;paint-order:markers fill stroke"
       sodipodi:nodetypes="ccccccc"
       inkscape:export-xdpi="799.98169"
       inkscape:export-ydpi="799.98169" />
    <path
       id="path865-4-6"
       d="m 455.63132,710.94779 -2.33155,6.32484 -11.78903,-2.66342 2.82051,-5.82264 z"
       style="display:inline;opacity:1;fill:#a06e48;fill-opacity:1;fill-rule:evenodd;stroke:#000000;stroke-width:2.84665;stroke-linecap:round;stroke-linejoin:round;stroke-miterlimit:4;stroke-dasharray:none;stroke-opacity:1;paint-order:markers fill stroke"
       inkscape:export-xdpi="799.98169"
       inkscape:export-ydpi="799.98169" />
    <path
       style="display:inline;opacity:1;fill:#ffffff;fill-opacity:1;fill-rule:evenodd;stroke:#000000;stroke-width:2.84665;stroke-linecap:round;stroke-linejoin:round;stroke-miterlimit:4;stroke-dasharray:none;stroke-opacity:1;paint-order:markers fill stroke"
       d="m 439.05981,676.4859 c 4.09284,1.01672 5.87937,3.84676 4.77985,8.08705 5.35041,0.59348 3.8841,12.83013 -4.19166,10.12983 0.22758,4.55588 -4.52154,11.37549 -10.90758,7.20987 -3.81576,3.68649 -6.6701,0.22533 -7.64519,-2.69133 z"
       id="path861-3"
       sodipodi:nodetypes="cccccc"
       inkscape:export-xdpi="799.98169"
       inkscape:export-ydpi="799.98169" />
    <path
       style="display:inline;opacity:1;fill:#ffffff;fill-opacity:1;fill-rule:evenodd;stroke:none;stroke-width:2.84665;stroke-linecap:round;stroke-linejoin:round;stroke-miterlimit:4;stroke-dasharray:none;paint-order:markers fill stroke"
       d="m 423.23236,699.55969 -4.41554,-1.21222 16.91566,-23.39249 4.58867,3.63928 z"
       id="path1856"
       sodipodi:nodetypes="ccccc"
       inkscape:export-xdpi="799.98169"
       inkscape:export-ydpi="799.98169" />
  </g>
</svg>
