<?xml version="1.0" encoding="UTF-8" standalone="no"?>
<svg
   xmlns:dc="http://purl.org/dc/elements/1.1/"
   xmlns:cc="http://creativecommons.org/ns#"
   xmlns:rdf="http://www.w3.org/1999/02/22-rdf-syntax-ns#"
   xmlns:svg="http://www.w3.org/2000/svg"
   xmlns="http://www.w3.org/2000/svg"
   xmlns:sodipodi="http://sodipodi.sourceforge.net/DTD/sodipodi-0.dtd"
   xmlns:inkscape="http://www.inkscape.org/namespaces/inkscape"
   inkscape:export-ydpi="400"
   inkscape:export-xdpi="400"
   inkscape:export-filename="D:\Prog\NodeJS\PooTimeAdventure\pootime-adventure-mobile-app\assets\ulti\entrouporte.png"
   width="16.387306mm"
   height="23.830374mm"
   viewBox="0 0 16.387307 23.830374"
   version="1.1"
   id="svg8"
   inkscape:version="1.0 (4035a4fb49, 2020-05-01)"
   sodipodi:docname="sheepHead.svg">
  <defs
     id="defs2">
    <inkscape:path-effect
       only_selected="false"
       apply_with_weight="true"
       apply_no_weight="true"
       helper_size="0"
       steps="2"
       weight="33.333333"
       lpeversion="1"
       is_visible="true"
       id="path-effect1824"
       effect="bspline" />
  </defs>
  <sodipodi:namedview
     fit-margin-bottom="0"
     fit-margin-right="0"
     fit-margin-left="0"
     fit-margin-top="0"
     id="base"
     pagecolor="#ffffff"
     bordercolor="#666666"
     borderopacity="1.0"
     inkscape:pageopacity="0.0"
     inkscape:pageshadow="2"
     inkscape:zoom="5.12"
     inkscape:cx="31.087443"
     inkscape:cy="28.482194"
     inkscape:document-units="mm"
     inkscape:current-layer="layer1"
     inkscape:document-rotation="0"
     showgrid="false"
     inkscape:window-width="1920"
     inkscape:window-height="1001"
     inkscape:window-x="-9"
     inkscape:window-y="-9"
     inkscape:window-maximized="1">
    <inkscape:grid
       originy="-89.230671"
       originx="681.40054"
       id="grid860"
       type="xygrid" />
  </sodipodi:namedview>
  <metadata
     id="metadata5">
    <rdf:RDF>
      <cc:Work
         rdf:about="">
        <dc:format>image/svg+xml</dc:format>
        <dc:type
           rdf:resource="http://purl.org/dc/dcmitype/StillImage" />
        <dc:title></dc:title>
      </cc:Work>
    </rdf:RDF>
  </metadata>
  <g
     transform="translate(681.40049,-89.230688)"
     inkscape:label="Calque 1"
     inkscape:groupmode="layer"
     id="layer1">
    <path
       sodipodi:nodetypes="cccccccccsccccscc"
       d="m -676.75351,101.69275 c -1.95398,1.12071 -3.83378,-1.786133 -1.76026,-3.016277 -3.42325,-0.63603 -1.44602,-5.605669 1.14897,-4.633646 -1.30472,-2.838111 5.32815,-3.968964 5.42523,-1.259803 0.53827,-1.955203 6.18607,-0.290816 4.19149,2.614185 2.17853,-0.162727 2.42844,4.963871 -0.20543,4.649541 0.15374,2.1255 -1.90189,1.68494 -2.11457,1.64601 m -6.68543,-1e-5 v 0 c -0.76875,0.24259 -0.23119,4.02015 -0.23119,4.02015 -1.30468,0.20661 -1.33219,2.71494 -0.20416,2.97397 -0.77349,2.14555 2.60577,1.75372 2.50501,1.09828 1.22329,2.04212 3.14369,0.57335 2.8795,-0.38315 -0.009,0.89223 2.94505,0.80712 1.90186,-1.20607 1.41254,0.13784 1.04949,-2.84855 -0.2726,-2.48606 -0.0742,0.0203 0.99839,-3.98045 0.10701,-4.01711 h 2e-5"
       style="fill:#e5ffff;fill-opacity:1;fill-rule:evenodd;stroke:#000000;stroke-width:1.1;stroke-linecap:round;stroke-linejoin:round;stroke-miterlimit:4;stroke-dasharray:none;paint-order:markers fill stroke"
       id="path1832" />
  </g>
</svg>
